# xmcd
#
# Track frame offsets:
#	150
#	27028
#	43016
#	80042
#	104134
#	137402
#	160269
#	186194
#	219715
#
# Disc length: 4485 seconds
#
# Revision: 1
# Processed by: cddbd v1.5.2PL0 Copyright (c) Steve Scherf et al.
# Submitted via: audiograbber 1.83.01
#
DISCID=7c118309
DTITLE=Grateful Dead - 74-07-27 Roanoke Civic Centre, Roanoke VA
DYEAR=1900
DGENRE=
TTITLE0=Bertha
TTITLE1=Mexicali Blues
TTITLE2=Row Jimmy
TTITLE3=Jack Straw
TTITLE4=Mississippi Half-Step
TTITLE5=It Must Have Been The Roses
TTITLE6=Me and Bobby McGee
TTITLE7=Tennessee Jed
TTITLE8=Playing In The Band
EXTD=
EXTT0=
EXTT1=
EXTT2=
EXTT3=
EXTT4=
EXTT5=
EXTT6=
EXTT7=
EXTT8=
PLAYORDER=
